{"title":"Batman.Under.The.Red.Hood.2010.1080p.BluRay.DTS.x264-LTT","uid":5736249,"size":4471206260,"categoryP":"video","categoryS":"hd___movies","magnet":"?xt=urn:btih:aeaf8a53921096619d757f7881200449d4579e39&amp;dn=Batman.Under.The.Red.Hood.2010.1080p.BluRay.DTS.x264-LTT&amp;tr=udp%3A%2F%2Ftracker.openbittorrent.com%3A80&amp;tr=udp%3A%2F%2Fopen.demonii.com%3A1337&amp;tr=udp%3A%2F%2Ftracker.coppersurfer.tk%3A6969&amp;tr=udp%3A%2F%2Fexodus.desync.com%3A6969","seeders":6,"leechers":3,"uploader":"Sh3rlock","files":2,"time":1280828489,"description":"Batman.Under.The.Red.Hood.mkv\n*****************************\n\nTiTLE......  Batman: Under the Red Hood\nYEAR.......  2010\nGENRE......  Action | Animation\niMDB RATE..  User Rating: 7.9/10 (1,503 votes)\niMDB URL... &lt;a href=&quot; http://www.imdb.com/title/tt1569923/&quot; rel=&quot;nofollow&quot; target=&quot;_NEW&quot;&gt; http://www.imdb.com/title/tt1569923/&lt;/a&gt;\n*************************************************\n\nVideo\nDuration                         : 1h 15mn\nOverall bit rate                 : 7 861 Kbps\nWidth                            : 1 920 pixels\nHeight                           : 1 080 pixels\nDisplay aspect ratio             : 16:9\nFrame rate                       : 23.976 fps\nStream size                      : 3.28 GiB (79%)\n\nAudio\nFormat                           : DTS\nFormat/Info                      : Digital Theater Systems\nBit rate                         : 1 510 Kbps\nChannel(s)                       : 6 channels\nChannel positions                : Front: L C R, Surround: L R, LFE\nSampling rate                    : 48.0 KHz\nResolution                       : 24 bits\nStream size                      : 819 MiB (19%)\nLanguage                         : English\n\nSubtitles: English (ass and srt)\n********************************","torrent":{"xt":"urn:btih:aeaf8a53921096619d757f7881200449d4579e39","amp;dn":"Batman.Under.The.Red.Hood.2010.1080p.BluRay.DTS.x264-LTT","amp;tr":["udp%3A%2F%2Ftracker.openbittorrent.com%3A80","udp%3A%2F%2Fopen.demonii.com%3A1337","udp%3A%2F%2Ftracker.coppersurfer.tk%3A6969","udp%3A%2F%2Fexodus.desync.com%3A6969"],"infoHash":"aeaf8a53921096619d757f7881200449d4579e39","infoHashBuffer":{"type":"Buffer","data":[174,175,138,83,146,16,150,97,157,117,127,120,129,32,4,73,212,87,158,57]},"announce":[],"urlList":[]}}